<svg width="70" height="70" viewBox="0 0 70 70" fill="none" xmlns="http://www.w3.org/2000/svg">
<circle cx="35" cy="35" r="35" fill="#8EC3F7"/>
<path d="M57.4363 36.7372C57.6575 40.5476 55.9121 44.2105 52.79 46.4476L54.6829 50.1105C55.2483 51.2168 55.3221 52.5197 54.8304 53.6751C54.3633 54.8305 53.4046 55.7401 52.2246 56.1334L50.2825 56.748C49.4737 57.0194 48.601 57.0352 47.783 56.7933C46.9649 56.5514 46.2411 56.0635 45.71 55.396L40.4983 49.2501C38.3104 48.8814 36.2454 47.9472 34.5 46.5459C33.2708 46.9147 32.0417 47.1114 30.8125 47.1114C28.6492 47.1114 26.4858 46.4476 24.6667 45.1693C23.3638 45.5626 22.0363 45.7347 20.6842 45.7101C18.7421 45.7347 16.8246 45.3414 15.03 44.6039C13.3018 43.8343 11.825 42.5939 10.7686 41.0245C9.71216 39.4551 9.11876 37.6201 9.05625 35.7293C8.85959 33.9593 9.15459 32.1647 9.91667 30.5422C9.20375 28.6984 9.13 26.6826 9.74459 24.8143C10.6542 22.4789 12.375 20.5368 14.5138 19.3076C15.9396 15.153 19.9467 12.3751 24.3471 12.6701C28.2804 8.98261 34.3033 8.58928 38.6792 11.7605C39.7117 11.4901 40.7933 11.3426 41.875 11.3426C45.2183 11.2689 48.3896 12.7439 50.4792 15.3743C55.4942 16.6772 59.0833 21.1514 59.28 26.363C59.4029 29.0918 58.6654 31.7714 57.1658 34.0576C57.3379 34.9426 57.4363 35.8276 57.4363 36.7372ZM45.1446 33.2709C46.5458 33.443 47.6521 34.5001 47.6521 35.9014C47.6521 36.5534 47.3931 37.1786 46.9321 37.6397C46.471 38.1007 45.8457 38.3597 45.1938 38.3597H43.645C42.8583 40.5722 41.4817 42.5143 39.6625 43.9893C40.2771 44.2105 40.9163 44.3334 41.5554 44.5055C54.1667 44.3334 52.6917 36.6389 52.6917 36.5159C52.66 35.6796 52.4638 34.8577 52.1142 34.0973C51.7646 33.3369 51.2685 32.6528 50.6543 32.0843C50.0401 31.5158 49.3198 31.0739 48.5347 30.784C47.7496 30.4941 46.915 30.3618 46.0788 30.3947C45.4268 30.3947 44.8015 30.1357 44.3405 29.6747C43.8794 29.2136 43.6204 28.5884 43.6204 27.9364C43.6204 27.2844 43.8794 26.6591 44.3405 26.1981C44.8015 25.737 45.4268 25.478 46.0788 25.478C49.1025 25.5518 52.0033 26.6826 54.265 28.6739C54.3879 27.9609 54.4617 27.2234 54.4617 26.4859C54.3142 23.4376 52.9375 20.7826 47.4063 20.2664C44.3333 12.9897 36.5896 17.0214 36.5896 19.283C36.5158 19.8484 37.1058 21.053 37.2042 21.1268C37.8562 21.1268 38.4814 21.3858 38.9425 21.8468C39.4035 22.3078 39.6625 22.9331 39.6625 23.5851C39.6625 24.9372 38.5563 26.0434 37.2042 26.0434C35.9013 25.9943 34.6721 25.5026 33.6888 24.6668C32.5088 25.4289 31.1567 25.8959 29.7554 26.0434C28.3542 26.1664 27.1988 25.183 27.125 23.8309C27.0804 23.5099 27.1018 23.1832 27.1877 22.8707C27.2737 22.5582 27.4224 22.2665 27.6249 22.0134C27.8274 21.7604 28.0793 21.5512 28.3653 21.3988C28.6513 21.2463 28.9654 21.1538 29.2883 21.1268C29.6817 21.0776 31.5992 20.7826 31.5992 19.2339C31.5992 17.6114 32.2138 16.0626 33.2708 14.8334C31.0092 14.2189 28.5754 15.0301 26.1171 18.0047C21.5938 17.2918 19.75 17.9064 18.3979 22.7001C16.0625 23.8555 14.8333 24.6668 14.2925 27.1251C16.9475 26.5843 19.6763 26.8055 22.2083 27.7397C23.4375 28.2068 24.1258 29.5834 23.6588 30.9109C23.1917 32.1893 21.7658 32.8284 20.4875 32.3614C18.6929 31.5747 16.6771 31.5255 14.8333 32.2139C14.0467 32.8776 14.0467 34.2543 14.0467 35.3359C14.0467 37.1551 14.9563 38.8514 16.505 39.8347C17.8079 40.4984 19.2583 40.8426 20.7088 40.818C20.34 40.1789 20.0204 39.5151 19.75 38.8268C19.5565 38.1952 19.6154 37.5131 19.9145 36.9241C20.2135 36.3351 20.7293 35.8849 21.3534 35.6684C21.9775 35.4519 22.6612 35.4858 23.2608 35.7631C23.8604 36.0404 24.3291 36.5394 24.5683 37.1551C25.5517 39.9576 28.0592 41.8751 31.0092 42.1947C34.3771 42.0226 37.3763 40.0314 38.8513 36.9584C39.4167 33.5659 42.1454 33.2709 45.1446 33.2709ZM50.0613 51.6347L48.5371 48.4389L46.7917 48.8322L49.25 51.9051L50.0613 51.6347ZM38.63 30.4684C38.6514 29.8404 38.4314 29.2281 38.0154 28.7572C37.5994 28.2863 37.0188 27.9926 36.3929 27.9364C34.6475 27.838 32.9513 28.428 31.6483 29.5834C30.2471 31.0093 29.5096 32.9759 29.5833 34.9672C29.5833 35.6192 29.8423 36.2445 30.3034 36.7055C30.7644 37.1665 31.3897 37.4255 32.0417 37.4255C33.4429 37.4255 34.5 36.3193 34.5 34.9672C34.5 34.3034 34.6721 33.6397 35.0654 33.0989C35.3604 32.853 35.7292 32.7301 36.1225 32.7301C37.4746 32.8039 38.63 31.7959 38.63 30.4684Z" fill="#235599"/>
</svg>
