<svg width="70" height="70" viewBox="0 0 70 70" fill="none" xmlns="http://www.w3.org/2000/svg">
<circle cx="35" cy="35" r="35" fill="#8EC3F7"/>
<path d="M46.7917 29.5833C46.7917 33.6076 44.8619 37.1796 41.8652 39.424L44.8152 43.3574C46.9566 41.7561 48.6948 39.6771 49.8914 37.2859C51.0881 34.8947 51.7102 32.2573 51.7083 29.5833H46.7917ZM34.5 17.2917C37.7599 17.2917 40.8864 18.5867 43.1915 20.8918C45.4966 23.1969 46.7917 26.3234 46.7917 29.5833H51.7083C51.7083 25.0194 49.8953 20.6424 46.6681 17.4152C43.4409 14.188 39.0639 12.375 34.5 12.375V17.2917ZM22.2083 29.5833C22.2083 26.3234 23.5033 23.1969 25.8085 20.8918C28.1136 18.5867 31.24 17.2917 34.5 17.2917V12.375C29.9361 12.375 25.5591 14.188 22.3319 17.4152C19.1047 20.6424 17.2917 25.0194 17.2917 29.5833H22.2083ZM27.1348 39.424C25.604 38.2807 24.3615 36.7956 23.5061 35.0871C22.6508 33.3786 22.2064 31.494 22.2083 29.5833H17.2917C17.2897 32.2573 17.9119 34.8947 19.1085 37.2859C20.3052 39.6771 22.0434 41.7561 24.1848 43.3574L27.1348 39.424ZM32.0343 53.5349C31.9563 49.7864 31.1819 46.0852 29.7505 42.6199L25.2075 44.5005C26.4022 47.394 27.0537 50.4915 27.1201 53.6381L32.0343 53.5349ZM37.7991 52.227C36.7748 52.7394 35.6453 53.0061 34.5 53.0061C33.3547 53.0061 32.2252 52.7394 31.2009 52.227L29.0032 56.625C30.7099 57.4783 32.5918 57.9226 34.5 57.9226C36.4082 57.9226 38.2901 57.4783 39.9968 56.625L37.7991 52.227ZM39.2495 42.6223C37.8176 46.0867 37.0423 49.7871 36.9632 53.5349L41.8799 53.6381C41.9463 50.4915 42.5977 47.394 43.7925 44.5005L39.2495 42.6223ZM39.9968 56.625C40.5529 56.3458 41.0222 55.92 41.3541 55.3936C41.6859 54.8673 41.8677 54.2603 41.8799 53.6381L36.9632 53.5349C36.97 53.2614 37.0515 52.9949 37.1988 52.7644C37.3461 52.5339 37.5537 52.3481 37.7991 52.227L39.9968 56.625ZM27.1201 53.6381C27.1447 54.8771 27.8428 56.0448 29.0032 56.625L31.2009 52.227C31.4463 52.3481 31.6539 52.5339 31.8012 52.7644C31.9485 52.9949 32.03 53.2614 32.0367 53.5349L27.1201 53.6381ZM24.1848 43.3574C24.5536 43.6376 24.7724 43.7999 24.9248 43.9228C25.0797 44.0506 25.0502 44.0457 24.9813 43.9572L28.8655 40.9433C28.4058 40.3484 27.6929 39.842 27.1348 39.424L24.1848 43.3574ZM29.7505 42.6199C29.5587 42.1553 29.3154 41.521 28.8655 40.9433L24.9813 43.9572C24.9494 43.913 24.942 43.8908 24.974 43.9572L25.06 44.149L25.2075 44.5005L29.7505 42.6199ZM41.8652 39.424C41.3071 39.842 40.5917 40.3508 40.132 40.9433L44.0187 43.9572C43.9523 44.0432 43.9203 44.0506 44.0752 43.9252C44.2276 43.7999 44.444 43.6376 44.8152 43.3598L41.8652 39.424ZM43.7925 44.5005L43.94 44.149L44.026 43.9572C44.058 43.8908 44.0506 43.913 44.0187 43.9572L40.132 40.9433C39.6822 41.5235 39.4412 42.1552 39.2495 42.6223L43.7925 44.5005Z" fill="#235599"/>
<path d="M41.8553 44.3333C39.6788 45.7897 37.1189 46.5672 34.5 46.5672C31.8811 46.5672 29.3212 45.7897 27.1447 44.3333" stroke="#235599" stroke-width="4"/>
</svg>
