<svg width="70" height="67" viewBox="0 0 70 67" fill="none" xmlns="http://www.w3.org/2000/svg">
<ellipse cx="35" cy="33.5" rx="35" ry="33.5" fill="#8EC3F7"/>
<path fill-rule="evenodd" clip-rule="evenodd" d="M53.528 14.586C53.3423 14.4 53.1217 14.2525 52.8789 14.1518C52.6361 14.0512 52.3758 13.9994 52.113 13.9994C51.8502 13.9994 51.5899 14.0512 51.3471 14.1518C51.1043 14.2525 50.8837 14.4 50.698 14.586L48.954 16.33C47.8339 15.7952 46.5756 15.6209 45.3524 15.8312C44.1291 16.0414 43.0012 16.6259 42.124 17.504L20.91 38.716L32.224 50.03L53.44 28.82C54.3178 27.9425 54.9018 26.8145 55.1117 25.5913C55.3216 24.368 55.147 23.1098 54.612 21.99L56.358 20.244C56.7329 19.8689 56.9436 19.3603 56.9436 18.83C56.9436 18.2996 56.7329 17.791 56.358 17.416L53.528 14.586ZM44.992 31.606L32.224 44.374L26.568 38.716L39.334 25.95L44.992 31.606ZM48.628 27.97L50.608 25.99C50.794 25.8042 50.9415 25.5836 51.0421 25.3408C51.1428 25.098 51.1946 24.8378 51.1946 24.575C51.1946 24.3121 51.1428 24.0519 51.0421 23.8091C50.9415 23.5663 50.794 23.3457 50.608 23.16L47.782 20.332C47.5963 20.146 47.3757 19.9985 47.1329 19.8978C46.8901 19.7972 46.6298 19.7454 46.367 19.7454C46.1042 19.7454 45.8439 19.7972 45.6011 19.8978C45.3583 19.9985 45.1377 20.146 44.952 20.332L42.972 22.312L48.628 27.97Z" fill="#235599"/>
<path d="M15 55.9L19.244 40.344L30.556 51.658L15 55.9Z" fill="#235599"/>
</svg>
