<svg width="40" height="40" viewBox="0 0 40 40" fill="none" xmlns="http://www.w3.org/2000/svg">
<path d="M36.4667 39.5L22.8167 25.85C21.7333 26.7167 20.4875 27.4028 19.0792 27.9083C17.6708 28.4139 16.1722 28.6667 14.5833 28.6667C10.6472 28.6667 7.31633 27.3031 4.59067 24.576C1.865 21.8489 0.501446 18.518 0.500001 14.5833C0.498557 10.6487 1.86211 7.31778 4.59067 4.59067C7.31922 1.86356 10.6501 0.5 14.5833 0.5C18.5166 0.5 21.8482 1.86356 24.5782 4.59067C27.3082 7.31778 28.671 10.6487 28.6667 14.5833C28.6667 16.1722 28.4139 17.6708 27.9083 19.0792C27.4028 20.4875 26.7167 21.7333 25.85 22.8167L39.5 36.4667L36.4667 39.5ZM14.5833 24.3333C17.2917 24.3333 19.5941 23.3858 21.4907 21.4907C23.3872 19.5956 24.3348 17.2931 24.3333 14.5833C24.3319 11.8736 23.3843 9.57183 21.4907 7.67817C19.597 5.7845 17.2946 4.83622 14.5833 4.83333C11.8721 4.83044 9.57039 5.77872 7.67817 7.67817C5.78595 9.57761 4.83767 11.8793 4.83333 14.5833C4.829 17.2873 5.77728 19.5898 7.67817 21.4907C9.57906 23.3916 11.8808 24.3391 14.5833 24.3333Z" fill="white"/>
</svg>
